# xmcd CD database file
# Copyright (C) 1993-1998 Ti Kan
#
# Track frame offsets:
# 182
# 20542
# 36307
# 50672
# 75440
# 89990
# 113782
# 128447
# 151015
# 172422
# 192765
# 205092
# 224250
# 240025
# 256917
# 279587
# 298715
# 311115
# 323920
# 336305
#
# Disc length: 4762 seconds
# Revision: 0
# Processed by: cddbd v1.4b41PL1 Copyright (c) Steve Scherf et al.
# Submitted via: CDSpectrumPro v3.4.340
#
DISCID=22129814
DTITLE=Various Artist - Maximum Speed
DYEAR=1900
DGENRE=
TTITLE0=Amira - My Desire (Dream Team Remix)
TTITLE1=Dreem Teem - The Theme (Dub Vocal Mix)
TTITLE2=Nicole - Runnin' Away (E-Smoove House Dub)
TTITLE3=187 Lockdown - Gunman (Original Mix)
TTITLE4=A Baffled Republic - Bad Boys (Blouse and Skirt Mix)
TTITLE5=Boris D'lugosch - Hold Your Head Up High (Julian Jonahs Bad Boy Mix)
TTITLE6=George Morel - Lets Groove (Original Instrumental Mix)
TTITLE7=Michele Weeks - Don't Give Up (M&S Epic klub Mix)
TTITLE8=Somore featuring Damon Trueitt - I Refuse "What You Want" (Industry St
TTITLE8=andard Club Mix)
TTITLE9=TJR featuring Xavier - Just Gets Better (TJR Dub)
TTITLE10=Gant - Sound Bwoy Burial
TTITLE11=Rosie Gaines - I Surrender (Grant Nelson ClubSymphony Mix)
TTITLE12=Byron Stingily - Sing a Song ( 187 Lockdown Vocal Mix)
TTITLE13=Ultra Nate - Free (R.I.P. Up North Dub)
TTITLE14=Coco - I Need A Miracle (Sol Brothers Dub Plate Mix)
TTITLE15=DSK - What Would We Do ?  (Clay and Deller's Industry Standard Mix)
TTITLE16=Fabulous Baker Boys - Oh Boy (Ramsey and Fen Remix)
TTITLE17=The Heartists - Belo Horizonti (Ramsey and Fen Mix)
TTITLE18=The Funk Junkeez - Got Funk ? (Da Mongoloids FunktasticFunk Mix)
TTITLE19=Praxis featuring Kathy Brown - Turn Me Out "Turn To Sugar" (Sol Broth
TTITLE19=ers Turn To Sugar Remix)
EXTD=CD 1
EXTT0=
EXTT1=
EXTT2=
EXTT3=
EXTT4=
EXTT5=
EXTT6=
EXTT7=
EXTT8=
EXTT9=
EXTT10=
EXTT11=
EXTT12=
EXTT13=
EXTT14=
EXTT15=
EXTT16=
EXTT17=
EXTT18=
EXTT19=
PLAYORDER=
